# xmcd
#
# Track frame offsets:
#	150
#	12332
#	23630
#	35478
#	51468
#	63652
#	75345
#	89267
#	110095
#	125003
#	143271
#	158352
#	168965
#	192242
#	204126
#	214455
#	233705
#	246010
#	263741
#	279613
#	302405
#
# Disc length: 4287 seconds
#
# Revision: 0
# Processed by: cddbd v1.5.1PL0 Copyright (c) Steve Scherf et al.
# Submitted via: MusicWizard 7.0.2
#
DISCID=1510bd15
DTITLE=Various Artist - The Band And Music Of Pullman City
DYEAR=1900
DGENRE=Country
TTITLE0=James Dee - Lose Your Heart
TTITLE1=The Lennenrockers - The Girl In My Dreams
TTITLE2=Fresh Horses - Give A Little, Take A Little
TTITLE3=Duo White Eagle - Die Glückliche Frau
TTITLE4=Country Corner - I Got You Every Night
TTITLE5=Jamestown Ferry - Walking After Midnight
TTITLE6=Silverado - Let`s Go To Vegas
TTITLE7=Blue Ridge Mountain - One Night At A Time
TTITLE8=Ricky And The Balladeers - And She Danced
TTITLE9=Cripple Creek Band - Where Did I Go
TTITLE10=Snake Eyes - Come To Country
TTITLE11=Doug Adkins - What`s Your Problem
TTITLE12=Cliff Jackson - Hurricane Wind
TTITLE13=Montana Blaze - Love You Too Much
TTITLE14=Willie Hoffman - Sold
TTITLE15=David Lee Howard - One Step From Heaven
TTITLE16=Westend - Amarillo By Morning
TTITLE17=NightHawk - Taxi
TTITLE18=Helt Oncale - Meant For Me
TTITLE19=The Bunch - The Joker
TTITLE20=Blue Steel - Gone Country
EXTD=
EXTT0=
EXTT1=
EXTT2=
EXTT3=
EXTT4=
EXTT5=
EXTT6=
EXTT7=
EXTT8=
EXTT9=
EXTT10=
EXTT11=
EXTT12=
EXTT13=
EXTT14=
EXTT15=
EXTT16=
EXTT17=
EXTT18=
EXTT19=
EXTT20=
PLAYORDER=
